<svg width="256" height="256" viewBox="0 0 256 256" fill="none" xmlns="http://www.w3.org/2000/svg">
  <!-- Window -->
  <rect width="256" height="256" fill="#153243"/>
  
  <!-- Top bar -->
  <rect width="256" height="48" fill="#0C1B26"/>
  <circle cx="32" cy="24" r="8" fill="#FF5F56"/>
  <circle cx="56" cy="24" r="8" fill="#FFBD2E"/>
  <circle cx="80" cy="24" r="8" fill="#27C93F"/>

  <!-- Pane Splitter -->
  <rect x="184" y="48" width="8" height="208" fill="#0C1B26"/>

  <!-- Left: Webpage Layout Outline -->
  <rect x="20" y="68" width="144" height="16" rx="4" fill="#48B4C4"/>
  <rect x="20" y="92" width="144" height="68" rx="8" fill="#48B4C4" fill-opacity="0.8"/>
  <rect x="20" y="168" width="68" height="68" rx="6" fill="#48B4C4" fill-opacity="0.5"/>
  <rect x="96" y="168" width="68" height="68" rx="6" fill="#48B4C4" fill-opacity="0.5"/>

  <!-- Right: Sidebar / Secondary Layout -->
  <rect x="204" y="68" width="40" height="10" rx="5" fill="#E6A845"/>
  <rect x="204" y="92" width="32" height="6" rx="3" fill="#E6A845" fill-opacity="0.6"/>
  <rect x="204" y="104" width="36" height="6" rx="3" fill="#E6A845" fill-opacity="0.6"/>
  <rect x="204" y="116" width="20" height="6" rx="3" fill="#E6A845" fill-opacity="0.6"/>
  <rect x="204" y="140" width="40" height="8" rx="4" fill="#E6A845"/>
  <rect x="204" y="160" width="36" height="6" rx="3" fill="#E6A845" fill-opacity="0.6"/>
  <rect x="204" y="172" width="28" height="6" rx="3" fill="#E6A845" fill-opacity="0.6"/>
  <rect x="204" y="184" width="32" height="6" rx="3" fill="#E6A845" fill-opacity="0.6"/>
  <rect x="204" y="208" width="38" height="6" rx="3" fill="#E6A845" fill-opacity="0.6"/>
  <rect x="204" y="220" width="24" height="6" rx="3" fill="#E6A845" fill-opacity="0.6"/>
  <rect x="204" y="232" width="16" height="6" rx="3" fill="#E6A845" fill-opacity="0.6"/>
</svg>
